<?xml version="1.0" encoding="utf-8"?>
<!-- Generator: Adobe Illustrator 16.0.0, SVG Export Plug-In . SVG Version: 6.00 Build 0)  -->
<!DOCTYPE svg PUBLIC "-//W3C//DTD SVG 1.1//EN" "http://www.w3.org/Graphics/SVG/1.1/DTD/svg11.dtd">
<svg version="1.1" id="Calque_1" xmlns="http://www.w3.org/2000/svg" xmlns:xlink="http://www.w3.org/1999/xlink" x="0px" y="0px"
	 width="132px" height="43px" viewBox="33 529.64 132 43" style="enable-background:new 33 529.64 132 43;" xml:space="preserve">
<g>
	<path d="M164.41,551.74c-6.893-1.85-12.371,0.19-12.607,0.281c-2.342,0.952-4.679,2.224-6.863,3.588
		c0.45-1.688,0.479-2.811,0.482-2.925c0.107-4.011,1.203-6.024,1.213-6.043c0.083-0.149,0.042-0.336-0.097-0.435
		c-0.138-0.099-0.329-0.077-0.442,0.05c-0.434,0.49-0.848,0.908-1.239,1.264c0.057-0.479,0.03-1.167-0.427-1.728
		c-0.612-0.752-1.786-1.017-3.489-0.789c-0.01,0.002-0.02,0.003-0.029,0.005c-0.085,0.02-2.071,0.479-2.608,1.842
		c-0.275,0.696-0.124,1.477,0.452,2.319c0.007,0.011,0.015,0.021,0.023,0.03c0.008,0.011,0.079,0.091,0.209,0.197
		c-4.243-0.219-5.437-1.079-5.453-1.093c-1.55-1.154-2.463-0.658-2.664-0.52c-2.974,1.543-4.458,1.403-5.18,1.014
		c-0.78-0.422-0.87-1.229-0.874-1.259c-0.072-0.905-0.326-1.448-0.776-1.659c-0.417-0.195-0.862-0.009-1.055,0.127
		c-4.786,3.254-6.153,2.913-6.308,2.855c-0.02-0.021-0.021-0.014-0.059-0.031c-1.928-0.94-0.856-3.732-0.81-3.851
		c0.048-0.122,0.02-0.257-0.064-0.348c0.055-0.062,0.085-0.143,0.084-0.226c0-0.029-0.017-0.722-0.671-1.155
		c-0.81-0.536-2.184-0.415-4.102,0.367c-0.107,0.049-2.648,1.256-3.296,3.38c-0.125,0.412-0.171,0.829-0.138,1.248
		c-0.186,0.087-0.363,0.169-0.528,0.246c-0.006,0.002-0.012,0.005-0.017,0.008c-1.481,0.785-3.296,2.165-4.857,3.458
		c0.886-2.59,1.766-5.103,1.782-5.147c0.048-0.139,0.001-0.292-0.116-0.378c-0.118-0.088-0.277-0.088-0.396,0
		c-0.062,0.045-0.124,0.09-0.185,0.132c0.152-0.413,0.184-0.859,0.092-1.339c-0.017-0.072-0.441-1.767-1.694-2.179
		c-0.755-0.25-1.611,0.021-2.544,0.802c-0.008,0.007-0.016,0.014-0.023,0.021c-0.053,0.055-1.307,1.334-1.027,2.582
		c0.15,0.668,0.69,1.176,1.606,1.509c0.055,0.022,0.269,0.103,0.61,0.144c-0.47,0.156-0.82,0.221-0.829,0.224
		c-0.015,0.003-0.03,0.006-0.044,0.012c-5.785,1.896-8.832,1.336-10.369,0.532c-1.434-0.75-1.757-1.785-1.77-1.826
		c-0.003-0.01-0.006-0.019-0.009-0.027c-0.213-0.562-0.522-0.912-0.917-1.038c-0.493-0.156-0.903,0.107-0.936,0.13
		c-1.43,0.88-5.725,3.319-5.76,3.34c-2.222,1.174-3.916,1.438-5.036,0.784c-1.358-0.793-1.427-2.74-1.427-2.762
		c-0.014-0.455-0.008-0.885,0.017-1.287c0.827-0.313,1.704-0.72,2.628-1.218c0.005-0.002,0.01-0.006,0.016-0.009
		c0.346-0.212,2.063-1.319,1.898-2.374c-0.079-0.504-0.543-0.861-1.385-1.067c-0.049-0.011-1.212-0.257-2.262,0.611
		c-0.85,0.703-1.361,1.904-1.526,3.582c-2.32,0.813-4.179,0.824-5.546,0.028c-2.336-1.361-2.437-4.707-2.438-4.74
		c-0.004-0.157-0.116-0.29-0.27-0.32c-0.153-0.029-0.308,0.053-0.369,0.196c-1.458,3.43-3.554,5.365-3.583,5.394
		c-6.032,5.898-8.579,3.518-8.601,3.494c-0.007-0.006-0.013-0.013-0.02-0.018c-2.082-1.821-1.568-8.366-1.562-8.443
		c0.037-0.7-0.152-1.192-0.561-1.458c-0.764-0.496-1.94,0.072-2.071,0.14c-0.01,0.004-0.02,0.01-0.029,0.017
		c-0.19,0.12-0.371,0.227-0.541,0.316c0.364-1.155,0.723-2.945,0.138-4.481c-0.009-0.022-0.019-0.043-0.032-0.063
		c-0.135-0.207-0.481-0.534-0.926-0.447c-0.698,0.136-1.218,1.193-1.634,3.326c-0.038,0.189-0.345,1.862,0.565,2.486
		c0.218,0.149,0.472,0.22,0.771,0.216c-3.642,8.027-7.474,9.857-7.514,9.875c-1.388,0.639-2.373,0.713-2.926,0.223
		c-1.17-1.039-0.394-4.473,0.004-5.707c2.326-7.158,4.942-9.567,6.727-10.327c1.533-0.652,2.581-0.168,2.635-0.142
		c0.164,0.081,0.363,0.014,0.445-0.15s0.015-0.363-0.149-0.446c-0.054-0.026-1.339-0.649-3.162,0.112
		c-1.921,0.804-4.717,3.321-7.131,10.748c-0.064,0.197-1.546,4.87,0.188,6.409c0.769,0.683,1.995,0.644,3.644-0.113
		c0.167-0.076,4.123-1.935,7.896-10.321c0.011-0.022,0.066-0.139,0.144-0.326c0.358-0.13,0.757-0.335,1.199-0.617
		c0.26-0.127,1.026-0.409,1.395-0.167c0.195,0.128,0.282,0.418,0.259,0.854c-0.023,0.283-0.544,6.934,1.78,8.982
		c0.101,0.097,0.759,0.68,2.045,0.696c1.444,0.026,3.91-0.693,7.479-4.185c0.081-0.072,1.797-1.653,3.246-4.547
		c0.243,1.228,0.892,3.1,2.619,4.107c1.485,0.866,3.44,0.903,5.837,0.115c-0.014,0.338-0.014,0.692-0.003,1.062
		c0.003,0.096,0.075,2.333,1.753,3.317c1.331,0.78,3.245,0.522,5.695-0.773c0.043-0.025,4.349-2.47,5.801-3.364
		c0.002-0.001,0.185-0.113,0.374-0.053c0.188,0.059,0.357,0.276,0.492,0.628c0.051,0.161,0.472,1.355,2.064,2.2
		c1.647,0.875,4.876,1.504,10.896-0.467c0.211-0.041,1.63-0.337,2.675-1.141c0.236-0.087,0.484-0.198,0.742-0.339
		c-0.41,1.179-1.149,3.308-1.824,5.295c-1.399,1.204-2.426,2.176-2.518,2.264c-5.338,5.004-8.161,10.195-8.191,10.251
		c-1.134,2.185-1.402,3.603-0.816,4.335c0.535,0.67,1.518,0.422,1.559,0.411c0.007-0.002,0.013-0.003,0.02-0.006
		c6.016-1.986,9.104-12.479,9.232-12.926c0.217-0.749,0.724-2.279,1.285-3.937c1.694-1.448,3.887-3.194,5.578-4.092
		c0.045-0.021,0.172-0.08,0.364-0.17c0.104,0.367,0.266,0.735,0.488,1.104c0.021,0.034,0.047,0.064,0.078,0.089
		c0.03,0.023,0.738,0.571,1.931,0.383c1.492-0.236,3.027-1.471,4.574-3.679c0.023,1.013,0.386,2.046,1.487,2.596
		c0.33,0.218,1.833,0.693,7.061-2.86c0.002-0.001,0.231-0.151,0.397-0.071c0.095,0.046,0.325,0.245,0.394,1.112
		c0.004,0.047,0.118,1.183,1.208,1.779c1.257,0.689,3.221,0.349,5.838-1.013c0.022-0.011,0.036-0.02,0.055-0.035
		c0.024-0.019,0.61-0.438,1.874,0.503c0.059,0.048,1.519,1.16,6.997,1.272c0.043,0.003,0.376,0.022,0.849-0.008
		c0.008,0,0.017,0,0.024,0c0.427,0.002,0.847-0.063,1.285-0.198c0.64-0.162,1.305-0.441,1.816-0.917
		c0.441-0.305,0.892-0.672,1.35-1.1c-0.31,1.053-0.636,2.643-0.694,4.789c0,0.031-0.041,1.434-0.696,3.499
		c-5.782,3.744-10.278,7.942-10.498,8.149c-6.512,5.451-6,6.721-5.833,7.138c0.199,0.493,0.747,0.62,1.099,0.62
		c0.032,0,0.063-0.001,0.092-0.003c0.018-0.001,0.035-0.003,0.052-0.008c3.961-0.92,8.768-5.637,9.084-5.95
		c3.896-3.303,5.733-6.898,6.597-9.539c2.33-1.495,4.861-2.905,7.394-3.937c0.055-0.021,5.515-2.049,12.19-0.258
		c0.178,0.049,0.36-0.058,0.408-0.235C164.692,551.97,164.587,551.788,164.41,551.74 M74.555,542.651
		c0.515-0.432,1.062-0.509,1.393-0.509c0.179,0,0.294,0.022,0.304,0.024c0.526,0.129,0.846,0.317,0.878,0.521
		c0.071,0.453-0.897,1.279-1.58,1.698c-0.782,0.421-1.527,0.774-2.232,1.059C73.494,544.139,73.912,543.188,74.555,542.651
		 M46.203,540.644c-0.298,0.07-0.533,0.053-0.691-0.057c-0.466-0.318-0.363-1.438-0.289-1.807c0.508-2.607,1.047-2.79,1.106-2.803
		c0.006-0.001,0.013-0.001,0.02-0.001c0.079,0,0.167,0.089,0.206,0.136C47.136,537.701,46.563,539.676,46.203,540.644
		 M102.476,546.728c-0.133,0.194-0.301,0.367-0.489,0.521c-1.204,0.418-1.978,0.112-2.019,0.095
		c-0.006-0.002-0.012-0.005-0.018-0.007c-0.692-0.25-1.093-0.597-1.19-1.03c-0.165-0.73,0.541-1.65,0.839-1.958
		c0.739-0.614,1.377-0.84,1.895-0.671c0.901,0.296,1.253,1.689,1.254,1.689C102.844,545.875,102.755,546.319,102.476,546.728
		 M99.879,556.938c-0.031,0.106-3.112,10.584-8.789,12.474c-0.074,0.018-0.618,0.126-0.864-0.186
		c-0.179-0.227-0.452-1.031,0.886-3.607c0.027-0.051,2.804-5.15,8.06-10.078c0.018-0.018,0.666-0.631,1.637-1.489
		C100.399,555.276,100.052,556.341,99.879,556.938 M114.522,546.07c-1.883,2.824-3.409,3.607-4.357,3.768
		c-0.769,0.129-1.255-0.125-1.397-0.214c-0.193-0.332-0.33-0.661-0.407-0.987c1.666-0.787,4.995-2.396,6.622-3.438
		C114.727,545.732,114.522,546.07,114.522,546.07 M108.28,547.938c0.004-0.25,0.043-0.498,0.117-0.743
		c0.559-1.839,2.918-2.962,2.926-2.967c1.194-0.486,2.008-0.637,2.559-0.637c0.462,0,0.739,0.105,0.898,0.208
		c0.229,0.148,0.322,0.35,0.358,0.48C114.129,545.085,110.71,546.788,108.28,547.938 M144.108,547.863
		c-0.105,0.226-0.249,0.418-0.417,0.584c-0.608,0.415-1.147,0.667-1.614,0.812c-0.416,0.101-0.824,0.147-1.156,0.17
		c-1.003-0.034-1.546-0.566-1.628-0.652c-0.432-0.642-0.557-1.208-0.37-1.682c0.388-0.987,1.966-1.396,2.123-1.435
		c1.427-0.189,2.417,0.001,2.867,0.549C144.412,546.821,144.145,547.745,144.108,547.863 M137.615,565.617
		c-0.007,0.005-0.014,0.012-0.02,0.018c-0.049,0.049-4.921,4.869-8.744,5.776c-0.113,0.005-0.433-0.025-0.504-0.203
		c-0.117-0.29-0.056-1.61,5.649-6.385c0.005-0.005,0.01-0.009,0.016-0.014c0.061-0.058,4.214-3.963,9.687-7.608
		C142.756,559.66,140.976,562.772,137.615,565.617"/>
	<path d="M41.755,531.539c0.081,0.012,0.409-0.063,0.526-0.125c0.059-0.03,0.17-0.097,0.211-0.215c0.027-0.076,0-0.569-0.163-0.663
		c-0.348-0.198-0.611-0.194-0.648-0.196c-0.3-0.021-0.411,0.106-0.453,0.279c-0.036,0.147-0.008,0.456,0.007,0.504
		C41.314,531.381,41.503,531.503,41.755,531.539"/>
	<path d="M45.579,531.541c0.085,0,0.814,0,0.742-0.659c-0.045-0.164-0.131-0.318-0.226-0.349c-0.36-0.226-0.757-0.163-0.778-0.156
		c-0.39,0.132-0.336,0.495-0.286,0.731C45.095,531.416,45.327,531.542,45.579,531.541"/>
	<path d="M113.936,535.969c0.177,0.112,0.561,0.074,0.705-0.09c0.09-0.103,0.173-0.226,0.213-0.354
		c0.035-0.11,0.037-0.253-0.003-0.359c-0.084-0.221-0.246-0.432-0.681-0.374c-0.034,0.004-0.292,0.206-0.352,0.349
		c-0.03,0.071-0.031,0.153-0.059,0.226C113.707,535.5,113.818,535.895,113.936,535.969"/>
</g>
</svg>
