<?xml version="1.0" encoding="utf-8"?>
<!-- Generator: Adobe Illustrator 16.0.0, SVG Export Plug-In . SVG Version: 6.00 Build 0)  -->
<!DOCTYPE svg PUBLIC "-//W3C//DTD SVG 1.1//EN" "http://www.w3.org/Graphics/SVG/1.1/DTD/svg11.dtd">
<svg version="1.1" id="Calque_1" xmlns="http://www.w3.org/2000/svg" xmlns:xlink="http://www.w3.org/1999/xlink" x="0px" y="0px"
	 width="700px" height="223px" viewBox="0 0 700 223" style="enable-background:new 0 0 700 223;" xml:space="preserve">
<g>
	<path style="fill:#FFFFFF;" d="M691.721,114.363c-36.199-9.713-64.966,0.998-66.207,1.474
		c-12.299,5.007-24.576,11.683-36.041,18.844c2.361-8.858,2.518-14.76,2.528-15.357c0.565-21.064,6.318-31.637,6.374-31.738
		c0.438-0.779,0.217-1.762-0.51-2.28c-0.727-0.518-1.728-0.404-2.322,0.266c-2.281,2.572-4.45,4.764-6.506,6.632
		c0.299-2.513,0.156-6.132-2.241-9.073c-3.216-3.949-9.382-5.342-18.326-4.143c-0.051,0.006-0.101,0.016-0.15,0.027
		c-0.444,0.099-10.877,2.518-13.696,9.667c-1.444,3.66-0.647,7.761,2.371,12.187c0.04,0.055,0.079,0.106,0.121,0.157
		c0.048,0.056,0.415,0.473,1.1,1.038c-22.282-1.153-28.55-5.673-28.639-5.739c-8.138-6.064-12.933-3.461-13.986-2.729
		c-15.618,8.101-23.414,7.365-27.205,5.319c-4.097-2.211-4.571-6.451-4.588-6.605c-0.379-4.757-1.714-7.606-4.079-8.713
		c-2.186-1.025-4.525-0.053-5.538,0.663c-25.136,17.093-32.313,15.301-33.128,14.998c-0.101-0.113-0.109-0.073-0.309-0.169
		c-10.123-4.938-4.493-19.598-4.249-20.217c0.255-0.645,0.101-1.353-0.339-1.83c0.287-0.324,0.446-0.746,0.44-1.183
		c-0.001-0.152-0.087-3.789-3.524-6.068c-4.25-2.818-11.47-2.182-21.54,1.925c-0.565,0.265-13.909,6.597-17.31,17.753
		c-0.659,2.163-0.899,4.353-0.724,6.555c-0.978,0.457-1.907,0.889-2.777,1.289c-0.031,0.013-0.06,0.029-0.088,0.042
		c-7.781,4.123-17.31,11.372-25.504,18.161c4.651-13.601,9.27-26.796,9.354-27.035c0.253-0.724,0.006-1.527-0.611-1.982
		c-0.618-0.456-1.458-0.456-2.077,0c-0.326,0.24-0.649,0.471-0.969,0.69c0.8-2.164,0.963-4.508,0.481-7.027
		c-0.092-0.378-2.317-9.277-8.898-11.446c-3.968-1.308-8.461,0.112-13.363,4.213c-0.041,0.035-0.081,0.071-0.119,0.109
		c-0.281,0.283-6.865,7.005-5.394,13.558c0.787,3.509,3.626,6.175,8.438,7.925c0.29,0.117,1.412,0.535,3.205,0.755
		c-2.466,0.817-4.308,1.164-4.354,1.172c-0.079,0.015-0.157,0.034-0.233,0.061c-30.38,9.961-46.38,7.021-54.454,2.801
		c-7.53-3.938-9.229-9.376-9.295-9.594c-0.012-0.048-0.028-0.095-0.045-0.14c-1.118-2.958-2.741-4.792-4.82-5.451
		c-2.588-0.821-4.742,0.561-4.915,0.679c-7.51,4.622-30.068,17.434-30.248,17.537c-11.668,6.168-20.565,7.556-26.446,4.121
		c-7.134-4.166-7.493-14.394-7.496-14.503c-0.072-2.392-0.043-4.646,0.089-6.756c4.344-1.649,8.949-3.784,13.801-6.397
		c0.028-0.016,0.055-0.03,0.083-0.048c1.816-1.11,10.834-6.933,9.967-12.467c-0.414-2.646-2.851-4.528-7.274-5.602
		c-0.258-0.058-6.362-1.354-11.878,3.207c-4.466,3.691-7.148,10.001-8.015,18.808c-12.186,4.271-21.947,4.328-29.127,0.147
		c-12.27-7.145-12.798-24.714-12.801-24.89c-0.019-0.825-0.609-1.525-1.417-1.68c-0.806-0.156-1.617,0.274-1.938,1.031
		c-7.658,18.011-18.665,28.173-18.82,28.317c-31.676,30.984-45.052,18.476-45.17,18.357c-0.033-0.034-0.068-0.066-0.103-0.099
		c-10.932-9.563-8.235-43.937-8.202-44.336c0.191-3.684-0.8-6.26-2.945-7.656c-4.014-2.613-10.188,0.38-10.879,0.729
		c-0.052,0.026-0.103,0.056-0.151,0.087c-0.998,0.636-1.947,1.19-2.842,1.661c1.916-6.063,3.799-15.466,0.725-23.534
		c-0.044-0.115-0.1-0.228-0.167-0.331c-0.707-1.086-2.526-2.802-4.863-2.348c-3.668,0.712-6.395,6.267-8.58,17.47
		c-0.2,0.991-1.812,9.777,2.969,13.053c1.145,0.785,2.477,1.155,4.048,1.137c-19.127,42.155-39.251,51.765-39.46,51.86
		c-7.294,3.351-12.463,3.741-15.367,1.164c-6.147-5.456-2.07-23.486,0.019-29.97C26.788,45.28,40.525,32.63,49.898,28.638
		c8.049-3.427,13.555-0.882,13.839-0.745c0.863,0.429,1.909,0.077,2.34-0.784c0.432-0.864,0.082-1.915-0.781-2.347
		c-0.283-0.142-7.034-3.416-16.605,0.591c-10.087,4.224-24.772,17.442-37.447,56.441c-0.335,1.041-8.119,25.578,0.984,33.66
		c4.037,3.584,10.479,3.383,19.138-0.595c0.875-0.395,21.65-10.162,41.466-54.202c0.059-0.12,0.348-0.727,0.755-1.715
		c1.881-0.68,3.977-1.758,6.301-3.237c1.368-0.667,5.385-2.148,7.325-0.88c1.023,0.669,1.479,2.197,1.362,4.49
		c-0.123,1.483-2.858,36.409,9.35,47.169c0.528,0.508,3.989,3.57,10.74,3.658c7.58,0.141,20.529-3.638,39.273-21.974
		c0.422-0.385,9.439-8.687,17.045-23.884c1.277,6.453,4.682,16.278,13.753,21.572c7.798,4.551,18.067,4.745,30.654,0.607
		c-0.069,1.775-0.073,3.636-0.015,5.584c0.012,0.497,0.391,12.248,9.206,17.415c6.993,4.101,17.042,2.742,29.911-4.062
		c0.227-0.129,22.838-12.971,30.465-17.666c0.01-0.006,0.972-0.598,1.963-0.283c0.985,0.312,1.878,1.454,2.585,3.304
		c0.267,0.848,2.479,7.117,10.841,11.556c8.653,4.596,25.605,7.894,57.224-2.451c1.113-0.214,8.564-1.771,14.049-5.992
		c1.24-0.46,2.542-1.043,3.899-1.779c-2.156,6.188-6.037,17.368-9.579,27.807c-7.352,6.322-12.745,11.43-13.227,11.886
		c-28.032,26.281-42.86,53.542-43.018,53.836c-5.958,11.472-7.362,18.92-4.289,22.767c2.809,3.521,7.969,2.216,8.188,2.159
		c0.035-0.009,0.071-0.018,0.105-0.03c31.594-10.432,47.812-65.541,48.486-67.881c1.14-3.938,3.801-11.972,6.75-20.675
		c8.895-7.607,20.41-16.776,29.293-21.493c0.237-0.109,0.903-0.417,1.91-0.887c0.542,1.925,1.395,3.859,2.561,5.794
		c0.108,0.179,0.248,0.338,0.412,0.468c0.157,0.122,3.874,3.002,10.14,2.008c7.834-1.237,15.896-7.719,24.016-19.318
		c0.123,5.317,2.031,10.747,7.813,13.633c1.729,1.142,9.629,3.646,37.082-15.023c0.012-0.008,1.214-0.794,2.086-0.372
		c0.5,0.239,1.704,1.287,2.067,5.837c0.022,0.252,0.62,6.216,6.345,9.351c6.603,3.616,16.919,1.827,30.657-5.317
		c0.116-0.061,0.188-0.104,0.289-0.189c0.128-0.098,3.204-2.299,9.837,2.645c0.312,0.25,7.977,6.092,36.746,6.681
		c0.225,0.017,1.977,0.12,4.46-0.04c0.043,0.001,0.083,0.001,0.125,0.002c2.24,0.011,4.445-0.336,6.748-1.049
		c3.359-0.848,6.852-2.311,9.537-4.811c2.322-1.601,4.688-3.528,7.093-5.778c-1.633,5.531-3.342,13.882-3.646,25.15
		c-0.002,0.164-0.215,7.532-3.656,18.377c-30.365,19.666-53.979,41.715-55.132,42.8c-34.198,28.631-31.512,35.294-30.629,37.484
		c1.043,2.588,3.921,3.262,5.771,3.262c0.171,0,0.332-0.006,0.483-0.015c0.092-0.008,0.184-0.021,0.274-0.043
		c20.802-4.834,46.042-29.604,47.703-31.251c20.466-17.346,30.107-36.231,34.646-50.097c12.24-7.854,25.53-15.259,38.83-20.676
		c0.285-0.109,28.962-10.757,64.019-1.351c0.937,0.255,1.891-0.304,2.141-1.233C693.206,115.571,692.652,114.612,691.721,114.363
		 M219.833,66.631c2.706-2.263,5.583-2.673,7.314-2.673c0.94,0,1.542,0.123,1.596,0.133c2.763,0.671,4.446,1.668,4.613,2.737
		c0.373,2.377-4.714,6.713-8.297,8.918c-4.11,2.212-8.02,4.066-11.723,5.561C214.264,74.445,216.458,69.453,219.833,66.631
		 M70.937,56.091c-1.565,0.367-2.797,0.275-3.628-0.293c-2.45-1.674-1.905-7.554-1.518-9.492c2.669-13.693,5.498-14.651,5.81-14.716
		c0.034-0.008,0.069-0.01,0.102-0.01c0.415,0,0.878,0.469,1.083,0.718C75.841,40.636,72.828,51.012,70.937,56.091 M366.465,88.04
		c-0.699,1.021-1.582,1.932-2.569,2.74c-6.324,2.193-10.384,0.592-10.604,0.501c-0.032-0.014-0.065-0.026-0.097-0.037
		c-3.633-1.316-5.737-3.136-6.25-5.409c-0.868-3.842,2.839-8.668,4.409-10.281c3.882-3.229,7.231-4.414,9.951-3.522
		c4.733,1.551,6.583,8.869,6.585,8.868C368.4,83.562,367.934,85.898,366.465,88.04 M352.827,141.664
		c-0.16,0.554-16.34,55.584-46.155,65.508c-0.388,0.087-3.247,0.66-4.542-0.979c-0.941-1.188-2.369-5.418,4.656-18.94
		c0.142-0.27,14.724-27.05,42.327-52.929c0.093-0.089,3.497-3.312,8.598-7.823C355.556,132.938,353.735,138.526,352.827,141.664
		 M429.729,84.587c-9.89,14.833-17.903,18.947-22.884,19.785c-4.037,0.683-6.592-0.655-7.339-1.123
		c-1.015-1.741-1.729-3.472-2.139-5.187c8.75-4.131,26.232-12.578,34.777-18.051C430.807,82.814,429.727,84.587,429.729,84.587
		 M396.948,94.4c0.02-1.315,0.224-2.617,0.615-3.901c2.937-9.663,15.322-15.559,15.367-15.581c6.27-2.557,10.544-3.347,13.438-3.347
		c2.427,0,3.88,0.558,4.716,1.095c1.204,0.775,1.69,1.831,1.885,2.522C427.661,79.418,409.708,88.361,396.948,94.4 M585.106,94.003
		c-0.555,1.184-1.304,2.198-2.19,3.07c-3.196,2.174-6.026,3.5-8.479,4.263c-2.185,0.529-4.326,0.78-6.07,0.894
		c-5.266-0.18-8.121-2.977-8.551-3.431c-2.269-3.367-2.924-6.337-1.944-8.83c2.037-5.181,10.326-7.329,11.147-7.529
		c7.492-0.992,12.694,0.003,15.054,2.884C586.703,88.529,585.299,93.387,585.106,94.003 M551.006,187.238
		c-0.036,0.031-0.071,0.062-0.104,0.096c-0.258,0.256-25.844,25.571-45.923,30.336c-0.594,0.021-2.274-0.137-2.649-1.067
		c-0.615-1.525-0.294-8.453,29.668-33.531c0.027-0.021,0.054-0.045,0.08-0.07c0.319-0.302,22.132-20.812,50.874-39.958
		C578.003,155.958,568.656,172.297,551.006,187.238"/>
	<path style="fill:#FFFFFF;" d="M47.578,8.276c0.421,0.06,2.15-0.338,2.762-0.656c0.308-0.161,0.89-0.514,1.108-1.129
		c0.144-0.404,0-2.992-0.855-3.482c-1.829-1.045-3.211-1.02-3.403-1.034c-1.575-0.105-2.156,0.561-2.38,1.469
		c-0.19,0.77-0.04,2.394,0.036,2.642C45.259,7.448,46.251,8.086,47.578,8.276"/>
	<path style="fill:#FFFFFF;" d="M67.661,8.282c0.449-0.001,4.28,0,3.9-3.46c-0.236-0.863-0.689-1.675-1.189-1.833
		c-1.889-1.187-3.976-0.855-4.086-0.818c-2.047,0.693-1.763,2.602-1.502,3.843C65.121,7.63,66.337,8.286,67.661,8.282"/>
	<path style="fill:#FFFFFF;" d="M426.651,31.543c0.927,0.589,2.946,0.391,3.704-0.47c0.475-0.539,0.909-1.188,1.122-1.864
		c0.183-0.575,0.191-1.321-0.021-1.878c-0.44-1.163-1.291-2.273-3.576-1.972c-0.179,0.023-1.531,1.085-1.849,1.834
		c-0.157,0.372-0.162,0.807-0.309,1.184C425.447,29.074,426.031,31.151,426.651,31.543"/>
</g>
</svg>
